<?xml version="1.0" encoding="UTF-8"?>
<svg xmlns="http://www.w3.org/2000/svg" viewBox="0 0 96 96" role="img" aria-label="@commandrelay/runtime-managed storybook pixel logo">
  <title>@commandrelay/runtime-managed storybook pixel logo</title>
  <rect x="4" y="4" width="88" height="88" rx="16" fill="hsl(252 36% 16%)"/>
  <rect x="4" y="4" width="88" height="88" rx="16" fill="none" stroke="hsl(54 20% 12%)" stroke-width="3"/>

  <g transform="translate(23 16)" shape-rendering="crispEdges" opacity="0.55" fill="hsl(2 83% 64%)">
      <rect x="30" y="0" width="5" height="5"/>
      <rect x="35" y="5" width="5" height="5"/>
      <rect x="20" y="10" width="5" height="5"/>
      <rect x="25" y="15" width="5" height="5"/>
      <rect x="10" y="20" width="5" height="5"/>
      <rect x="15" y="25" width="5" height="5"/>
      <rect x="0" y="30" width="5" height="5"/>
      <rect x="40" y="30" width="5" height="5"/>
      <rect x="5" y="35" width="5" height="5"/>
      <rect x="45" y="35" width="5" height="5"/>
      <rect x="30" y="40" width="5" height="5"/>
      <rect x="35" y="45" width="5" height="5"/>
  </g>

  <g transform="translate(18 18)" shape-rendering="crispEdges">
    <rect x="12" y="16" width="40" height="44" fill="hsl(50 66% 52%)"/>
    <rect x="8" y="20" width="6" height="40" fill="hsl(228 27% 26%)"/>
    <rect x="22" y="24" width="24" height="28" fill="hsl(94 26% 92%)"/>
    <rect x="22" y="24" width="24" height="3" fill="hsl(67 44% 34%)"/>
    <rect x="22" y="49" width="24" height="3" fill="hsl(67 44% 34%)"/>

    <rect x="28" y="30" width="2" height="16" fill="hsl(54 20% 12%)"/>
    <rect x="34" y="30" width="2" height="16" fill="hsl(54 20% 12%)"/>
    <rect x="40" y="30" width="2" height="16" fill="hsl(54 20% 12%)"/>

    <rect x="44" y="14" width="8" height="10" fill="hsl(2 83% 64%)"/>
    <rect x="52" y="16" width="4" height="6" fill="hsl(2 83% 64%)"/>
    <rect x="56" y="18" width="2" height="2" fill="hsl(94 26% 92%)"/>

    <rect x="17" y="61" width="30" height="4" fill="hsl(67 44% 34%)"/>
    <rect x="47" y="61" width="10" height="4" fill="hsl(2 83% 64%)"/>
  </g>
</svg>
